<svg width="8" height="14" viewBox="0 0 8 14" fill="none" xmlns="http://www.w3.org/2000/svg">
<path d="M7.69291 7.69301L1.67292 13.713C1.48899 13.8968 1.23958 14 0.979562 13.9999C0.719543 13.9998 0.47021 13.8964 0.286415 13.7125C0.10262 13.5286 -0.000581982 13.2792 -0.000488217 13.0192C-0.000394453 12.7591 0.102988 12.5098 0.286915 12.326L5.61391 7.00001L0.286915 1.67401C0.102988 1.49009 -0.00034178 1.24063 -0.000341778 0.980513C-0.000341776 0.7204 0.102988 0.470941 0.286915 0.287013C0.470843 0.103085 0.720302 -0.000244139 0.980415 -0.000244141C1.24053 -0.000244143 1.48999 0.103085 1.67392 0.287013L7.69391 6.30701C7.78493 6.39802 7.85712 6.50605 7.90638 6.62496C7.95563 6.74387 7.98099 6.87131 7.98099 7.00001C7.98099 7.12872 7.95563 7.25616 7.90638 7.37507C7.85712 7.49397 7.78393 7.60201 7.69291 7.69301Z" fill="black"/>
</svg>
