<svg xmlns="http://www.w3.org/2000/svg" width="24" height="18.385" viewBox="0 0 24 18.385">
  <g id="Group_1034" data-name="Group 1034" transform="translate(-271 -244.293)">
    <g id="Group_1033" data-name="Group 1033" transform="translate(271 233)">
      <path id="Path_2789" data-name="Path 2789" d="M23.91,19.887C22.915,18.723,17.486,13,12,13S1.082,18.741.089,19.9a.369.369,0,0,0,0,.481C1.082,21.544,6.512,27.25,12,27.25s10.915-5.715,11.91-6.879A.37.37,0,0,0,23.91,19.887ZM12,24.625a4.5,4.5,0,1,1,4.5-4.5A4.5,4.5,0,0,1,12,24.625Z" transform="translate(0)" fill="#3f4d59"/>
      <ellipse id="Ellipse_43" data-name="Ellipse 43" cx="3" cy="2.571" rx="3" ry="2.571" transform="translate(8.64 17.554)" fill="#3f4d59"/>
    </g>
    <g id="Path_2790" data-name="Path 2790" transform="translate(274.293 260.556) rotate(-45)" fill="#3f4d59">
      <path d="M 22.75 2.75 L 0.25 2.75 L 0.25 0.25 L 22.75 0.25 L 22.75 2.75 Z" stroke="none"/>
      <path d="M 0.5 0.5 L 0.5 2.5 L 22.5 2.5 L 22.5 0.5 L 0.5 0.5 M 0 0 L 23 0 L 23 3 L 0 3 L 0 0 Z" stroke="none" fill="#fff"/>
    </g>
  </g>
</svg>
