<?xml version="1.0" encoding="UTF-8"?>
<svg width="15px" height="15px" viewBox="0 0 15 15" version="1.1" xmlns="http://www.w3.org/2000/svg" xmlns:xlink="http://www.w3.org/1999/xlink">
    <!-- Generator: sketchtool 59.1 (101010) - https://sketch.com -->
    <title>E336CD86-AD51-49A5-AD2F-39B73F56E7D8</title>
    <desc>Created with sketchtool.</desc>
    <g id="Rently-smart-home" stroke="none" stroke-width="1" fill="none" fill-rule="evenodd">
        <g id="2-Smart-home-app-HOME-About-routines" transform="translate(-324.000000, -87.000000)" fill="#3F4D59" fill-rule="nonzero">
            <g id="pop-up-about-routines" transform="translate(16.000000, 67.000000)">
                <path d="M308.422318,22.4673055 C308.058091,22.1021881 307.915844,21.5700177 308.04916,21.0712579 C308.182476,20.5724981 308.571102,20.1829224 309.068646,20.0492801 C309.56619,19.9156379 310.097063,20.0582325 310.46129,20.42335 L315.498902,25.4730202 L320.538711,20.42335 C320.902938,20.0582325 321.433811,19.9156379 321.931355,20.0492801 C322.428898,20.1829224 322.817524,20.5724981 322.950841,21.0712579 C323.084157,21.5700177 322.94191,22.1021881 322.577633,22.4673551 L317.538128,27.5172298 L322.544403,32.5359984 C322.816517,32.8065492 322.969577,33.1748345 322.969577,33.5590296 C322.969577,33.9432247 322.816517,34.31151 322.544409,34.5820547 C322.273158,34.8517616 321.90595,35.0021209 321.528049,34.9999774 C321.145995,35.0021209 320.778787,34.8517616 320.506493,34.5810139 L315.498903,29.5614393 L310.492466,34.5820547 C310.221214,34.8517616 309.854006,35.0021209 309.476106,34.9999774 C309.094051,35.0021209 308.726843,34.8517616 308.455598,34.5820608 C308.183484,34.31151 308.030424,33.9432247 308.030424,33.5590296 C308.030424,33.1748345 308.183484,32.8065492 308.45448,32.5371148 L313.459677,27.5172301 L308.422318,22.4673055 Z" id="icon-close"></path>
            </g>
        </g>
    </g>
</svg>
