<svg width="15" height="15" viewBox="0 0 15 15" fill="none" xmlns="http://www.w3.org/2000/svg">
<path d="M0.422327 2.46731C0.0581 2.10219 -0.0841579 1.57002 0.0491581 1.07126C0.182474 0.572499 0.571084 0.182923 1.06863 0.0492802C1.56617 -0.084362 2.09707 0.0582319 2.4613 0.423349L7.4989 5.47302L12.5387 0.423349C12.9029 0.0582319 13.4338 -0.084362 13.9314 0.0492802C14.4289 0.182923 14.8175 0.572499 14.9508 1.07126C15.0841 1.57002 14.9419 2.10219 14.5776 2.46736L9.53811 7.51723L14.5444 12.536C14.8165 12.8066 14.9696 13.1748 14.9696 13.559C14.9696 13.9432 14.8165 14.3115 14.5444 14.5821C14.2731 14.8518 13.9059 15.0021 13.528 15C13.146 15.0021 12.7788 14.8518 12.5065 14.581L7.4989 9.56144L2.49246 14.5821C2.2212 14.8518 1.854 15.0021 1.4761 15C1.09404 15.0021 0.726836 14.8518 0.455591 14.5821C0.183477 14.3115 0.0304203 13.9432 0.0304203 13.559C0.0304203 13.1748 0.183466 12.8065 0.454462 12.5371L5.45968 7.51723L0.422327 2.46731Z" fill="#EDF5FA"/>
</svg>
